<svg id="Layer_1" data-name="Layer 1" xmlns="http://www.w3.org/2000/svg" viewBox="0 0 596.01 177.8"><defs><style>.cls-1{fill:#2b6847;}.cls-2{fill:#d56533;}.cls-3{fill:#cf6732;}.cls-4{fill:#cd7045;}.cls-5{fill:#c66e4a;}.cls-6{fill:#d06e43;}.cls-7{fill:#7ec29b;}.cls-8{fill:#fce6da;}.cls-9{fill:#f9ddd0;}.cls-10{fill:#f4dfd8;}.cls-11{fill:#3b6750;}.cls-12{fill:#cc7649;}.cls-13{fill:#f7e9df;}.cls-14{fill:#f7ede3;}.cls-15{fill:#ce8d65;}.cls-16{fill:#d57f63;}.cls-17{fill:#d06736;}.cls-18{fill:#cf6634;}.cls-19{fill:#6b6c43;}.cls-20{fill:#2b6845;}.cls-21{fill:#c06f3d;}.cls-22{fill:#2d6648;}.cls-23{fill:#a9683e;}.cls-24{fill:#bc8b6e;}.cls-25{fill:#b6683a;}.cls-26{fill:#4a5632;}.cls-27{fill:#757c55;}.cls-28{fill:#e06033;}.cls-29{fill:#c37d58;}.cls-30{fill:#576f3e;}.cls-31{fill:#d7754c;}.cls-32{fill:#febb94;}.cls-33{fill:#eae1df;}.cls-34{fill:#386a4f;}.cls-35{fill:#2b6848;}.cls-36{fill:#f7f1ea;}.cls-37{fill:#ce744b;}.cls-38{fill:#d06530;}.cls-39{fill:#d6652b;}.cls-40{fill:#d06c3a;}.cls-41{fill:#b56936;}.cls-42{fill:#456744;}.cls-43{fill:#d9632d;}.cls-44{fill:#cc6834;}.cls-45{fill:#dbfaed;}.cls-46{fill:#c66a34;}.cls-47{fill:#a56d3e;}.cls-48{fill:#366347;}.cls-49{fill:#f3dbc9;}.cls-50{fill:#ce653d;}.cls-51{fill:#4e643e;}.cls-52{fill:#f9c9ae;}.cls-53{fill:#4e664f;}.cls-54{fill:#d16e45;}.cls-55{fill:#df5f3c;}.cls-56{fill:#d06f48;}.cls-57{fill:#fed3b5;}.cls-58{fill:#f2dfd0;}.cls-59{fill:#d46533;}.cls-60{fill:#d46632;}.cls-61{fill:#d26639;}.cls-62{fill:#d1683c;}.cls-63{fill:#276a43;}.cls-64{fill:#d06940;}.cls-65{fill:#36653d;}.cls-66{fill:#cd8b67;}.cls-67{fill:#c38c73;}.cls-68{fill:#d0714a;}.cls-69{fill:#d66733;}.cls-70{fill:#faece8;}.cls-71{fill:#d09378;}.cls-72{fill:#eaddd3;}.cls-73{fill:#e9d0c9;}.cls-74{fill:#e2c3ac;}.cls-75{fill:#d3815d;}.cls-76{fill:#f9e0d2;}.cls-77{fill:#d0693b;}.cls-78{fill:#eacaac;}.cls-79{fill:#d76623;}.cls-80{fill:#cb683d;}.cls-81{fill:#f8e3cb;}.cls-82{fill:#d56734;}.cls-83{fill:#ce6839;}.cls-84{fill:#cb7a52;}.cls-85{fill:#cd6837;}.cls-86{fill:#d06540;}.cls-87{fill:#f2a886;}.cls-88{fill:#fcc7ac;}.cls-89{fill:#d66731;}.cls-90{fill:#c28f73;}.cls-91{fill:#fdfcfc;}.cls-92{fill:#d76145;}.cls-93{fill:#f7d3b8;}.cls-94{fill:#bf6c4e;}.cls-95{fill:#f8e1d8;}.cls-96{fill:#e26129;}.cls-97{fill:#796428;}.cls-98{fill:#f8d5b8;}.cls-99{fill:#7dc29e;}.cls-100{fill:#d36e3f;}.cls-101{fill:#c89a8d;}.cls-102{fill:#de6036;}.cls-103{fill:#827853;}.cls-104{fill:#356346;}.cls-105{fill:#c86b33;}.cls-106{fill:#efb3a8;}</style></defs><path class="cls-1" d="M1255.72,492.54l-.31-.8a2.31,2.31,0,0,0-1.74-.47c-6.46-.09-12.92-.19-19.37-.11-3.88,0-7.61-1.13-11.5-.67-2.21.26-3.37.84-4,3.34-.78,2.89.4,5.4.36,8.1-.12,7.59,0,15.19-.06,22.79-.15,13,.56,26.1-.59,39.13.53,2.1,0,4.53,1.89,6.19,3.5,1.16,7.06.57,10.61.43a4,4,0,0,0,1.11-.4c1.3-1,2.25-2.28,3.52-3.25,2.68-2.2,5.76-3.76,8.64-5.65.28-.19.56-.39.83-.61a7.45,7.45,0,0,1,6.93.65,4.3,4.3,0,0,0,1.81.21,2.55,2.55,0,0,0,1.75-.94,4,4,0,0,0,.23-1.09C1255.76,537.11,1255.9,514.82,1255.72,492.54Z" transform="translate(-662.23 -449.62)"/><path class="cls-2" d="M1091.18,577.17l1.31-.89c1.22-.62.66-2.25,1.68-3,2.32-1.48-.52-2.35-.42-3.56.57-1.08,2.08-.84,2.66-1.9a8.22,8.22,0,0,1,1.21-1.49q.35-.33.72-.63c1-.72,1-1.92,1.4-2.91,1-1.8-.69-2.87-1.15-4.28a4.12,4.12,0,0,1-.42-2.58c1.18-2.85,4.77-2.51,6.35-4.83,6-2.57,11.86-5.91,18.83-4l.82.09h0c2,.88,4.45-.22,6.2,1.56.43.9-.09,1.63-.43,2.39s0,1.61-.25,2.38-1.56,1.24-1.24,2.1,1.26.38,2,.09c2-.26,3.45,1.28,5.26,1.75s1.61,2.2-.54,2.82c-1.38.36-1.48,1.47-1.51,2.62a18.12,18.12,0,0,1,.44,2.55c.34,3.15-2.36,4.61-4.08,6.22a63.62,63.62,0,0,1-18.8,12.19c-1.09.06-2.55-1-3,1-1,1.93-3.3,2.27-4.46,3.94-.09,1.76,1.45.89,2.17,1.33,3.24,2.15,5.87,4.78,7.08,8.59.19,1.59-1.15,2.64-1.47,4.09,1.36.36,1.8-1.21,2.9-1.28a1.87,1.87,0,0,1,1,.22,16.62,16.62,0,0,0,1.81,2.21,7.17,7.17,0,0,1,1.57,2.48c.24.82.1,1.92,1.45,1.92,1.84,1.09,2.1,3,2.56,4.82,1,2.72,2,5.43,3,8.14-.55,1.11-.08,3.35-2.6,2.22-1.73-.78-1.08,1.12-1.69,1.62l-.19.71c-.5,1-.62,2.53-2.32.93a18.73,18.73,0,0,1-2.9-3.14l-3.64-6.79c-3.56-6-6.93-12-11.35-17.45a28.35,28.35,0,0,0-5.62-5.43c-1.36-1-2.51-1.08-3.32.64-.14.3-.31.59-.48.88-1.15,1.36-1.65,3.24-3.36,4.15-1.62,1.1-1.32,3.4-2.83,4.57-.8.89-.95,2.11-1.56,3.1-1.21,3.94-3.5,7.45-5.44,11-.79,1.46-2.63,3.9-5.11,4.5-.48-1.5-1.6-2.66-2.23-4.08a23.39,23.39,0,0,1-.36-5.41c-.46-3.46,1-6.56,1.76-9.79a4.83,4.83,0,0,1,.43-1.05c2.66-3.9,5.35-7.79,7.86-11.79,1.16-1.31.08-3.72,2.25-4.51.78-.88.8-2.09,1.36-3.06,1.1,0,1.6-.9,2.3-1.5s1.14-1.47,2-1.95a4,4,0,0,0,1.94-1.8A2.12,2.12,0,0,1,1091.18,577.17Z" transform="translate(-662.23 -449.62)"/><path class="cls-1" d="M1256.26,465.24c-1.24-7.37-7.62-13.64-15.58-15.32-6.79-1.43-15.18,2.35-19.32,8.73-5.62,8.67-4.07,22.47,9.34,28.59a19.16,19.16,0,0,0,13.49,0c1-.53,2-1,2.94-1.61C1254.3,481.46,1257.7,473.82,1256.26,465.24Z" transform="translate(-662.23 -449.62)"/><path class="cls-2" d="M1176.69,601.12a1.64,1.64,0,0,1,.08-.66c.71-1.32.84-2.9,1.86-4.08a6.58,6.58,0,0,0,2.7-3.17c.74-1,2-1.75,1.87-3.26-.18-2.47.94-4.54,2-6.62a1.64,1.64,0,0,1,.86-.6,3.45,3.45,0,0,1,1.06.16c.54.13,2,2.4,1.32-.56-.2-.93,1.08-1.55,1.23-2.54a66.46,66.46,0,0,0,3.76-6.61c.27-.76-.28-1-.82-1.25a3.17,3.17,0,0,1-2.28-2.38.72.72,0,0,0-.24-.68c-1.33-3.87-.62-5,3.13-6.06,1.8-.49,3.65,0,5.4-.61a.41.41,0,0,0,.56-.13c4.86-1.44,9.88-1,14.82-1.18,2.39-.07,4,1.83,4.87,4.09.08,1.48,1,3.35-1.7,3.55-1.66.12-.78,1.87-1.48,2.64-2.27,1.77-5,.77-7.53,1.42a1,1,0,0,1-1.49.08l-.76.05c-1.42.43-1.19,2.18-2.29,2.87-1.12.91-1.41,2.62-3,3.07-.38.41-.36,1-.53,1.44.6.24.94-.63,1.55-.36,2.19,0,4.37.07,6.54,0a4.22,4.22,0,0,1,3.83,1.61,1.33,1.33,0,0,1-.16,1.73c-1.76,4.82-6.06,4.23-9.86,4.49-4.85.33-9.26,1.09-9.85,7.52,5.31.65,11.31.1,15.81,4.47-.64,1-2,.72-2.8,1.52-2.18,1.95-4.66,2.07-7.53,1.92-4.69-.24-9.41.23-14.13.4C1180.64,604.47,1178.69,602.73,1176.69,601.12Z" transform="translate(-662.23 -449.62)"/><path class="cls-2" d="M1167.71,596.63l-12.8,7.46-1.94.12c-2,.53-3.76.57-4.94-1.46-.28-.55-.16-1.68-1.37-1a3.67,3.67,0,0,1-3.12-.51c-1.26-2-.25-3.81.32-5.71a42.36,42.36,0,0,1,6.63-12.86c.79-.57,1.56-1.17,2.33-1.77,2.54-2,3.06-1.7,3.58,1.54.77-2-2-3.26-1.4-5.36a3.48,3.48,0,0,1,.37-1c2.51-1.46,2.52-3.88,2.43-6.34a5.15,5.15,0,0,1,.36-1.55,12.11,12.11,0,0,1,3.27-3.27c1.33-.44.75-2.13,1.81-2.75l1.45,0a6.12,6.12,0,0,1,1,1.14c3.09,1.27,1.56,5,3.69,6.9.48.43-.53,1.28-1.25,1.47-1.29.33-1.41,1.2-1.22,2.27-1.08,3.24-.94,7-3.84,9.49-.51.39-2,.15-1,1.54.06,1.89-1.45,3.09-2.14,5a65.37,65.37,0,0,0,13.22-11.1c.89-.93,1.49-2.39,3.2-2.12,1.15.71,1.15,1.75.84,2.88-1.64,1.8-2.23,3.29,1.09,3.6,1.28.11,2,.69,1.88,2.08A29.17,29.17,0,0,1,1167.71,596.63Z" transform="translate(-662.23 -449.62)"/><path class="cls-3" d="M1254.74,560.85c0,1-.32,2.14.82,2.83,0,.46,0,.92,0,1.38-.86.42-1.17,1.67-2.37,1.56a2.16,2.16,0,0,1-3,0c-1.44,0-2.66-.13-1.56-2.08.48-.84,1.63-1.25,1.56-2.43.73-1,2.2-.47,3-1.4Z" transform="translate(-662.23 -449.62)"/><path class="cls-4" d="M1243.58,581.43a5.77,5.77,0,0,1,2-3.65l.47,0c.93,0,1.92.27,2.62-.64.86-2.22,3.49.55,4.39-1.55l-1.36,3.13c-.8.8,0,2.57-1.7,2.81l-1.18,0a2.11,2.11,0,0,0-2.72-.07c-.83.62-1.75.92-2.61,0Z" transform="translate(-662.23 -449.62)"/><path class="cls-5" d="M1073.07,602.5c0-1.68,1.29-2.85,1.64-4.39a6.12,6.12,0,0,0,1.56-2.88c1.62-1.39,2.42-3.58,4.43-4.6C1079,595.14,1076.9,599.37,1073.07,602.5Z" transform="translate(-662.23 -449.62)"/><path class="cls-6" d="M1148.19,601.83a5.12,5.12,0,0,0,4.78,2.38c-2.73,1-5.4,2.49-8.48,1.35-1.19-2.65,0-3.7,2.58-3.84A1.06,1.06,0,0,1,1148.19,601.83Z" transform="translate(-662.23 -449.62)"/><path class="cls-7" d="M820.88,496.71c0-5.57-1.55-6.67-7.14-5.95-8.45,1.09-17,.61-25.42.29-4.2-.15-5.35.53-5.34,4.84q0,12.93,0,25.86c0,4.87.12,9.75,0,14.62-.14,4.47-3.11,7.35-7.27,7.36-4.43,0-6.4-2.15-6.57-7.2,0-1.37,0-2.75,0-4.12,0-12.12.07-24.23,0-36.35,0-4.43-1-4.86-5.4-4.88-8.48-.05-16.94.46-25.44-.4-6.61-.67-7.4,1-7.38,6.35,0,9.87.2,19.74,0,29.6-.19,8.57.56,16.92,3.5,25,.19.39.37.77.59,1.15,1.51,2.3,2.86,4.71,5.26,6.24s4.43,3.92,7.05,5.46c10.93,6.38,22.82,7.18,35,6.39a17.06,17.06,0,0,0,7.7-1.29h0c1.35-.21,2.72-.3,4-.63a34.79,34.79,0,0,0,22.68-17.48c3.92-4,3-9.45,3.58-14.09C821.87,524,820.74,510.32,820.88,496.71Z" transform="translate(-662.23 -449.62)"/><path class="cls-8" d="M1147.58,602c-1.46.84-3.93.82-3.09,3.61l-.81.05.06-4.59,3.66-.14A.78.78,0,0,1,1147.58,602Z" transform="translate(-662.23 -449.62)"/><path class="cls-9" d="M1067.23,622.1c.73-1-.43-2,0-3a2.46,2.46,0,0,1,2.35,1.52c-.13.94.07,2.11-1,2.52C1067.88,623.36,1067.47,622.68,1067.23,622.1Z" transform="translate(-662.23 -449.62)"/><path class="cls-10" d="M1241.88,599.62c-1.22-2.53.27-3,2.31-3C1243.16,597.41,1244.26,599.85,1241.88,599.62Z" transform="translate(-662.23 -449.62)"/><path class="cls-11" d="M884.85,521.64c-5-1.17-10.19-.89-15.18-2.06-1.63-.38-3.17-1.2-3.21-3.15s1.43-2.69,3.07-3.25a16.53,16.53,0,0,1,5.18-.61c5.64-.13,11.14,1.21,16.73,1.68,3.62,2.08,3.86-.59,4.26-3,1.4-4,2.69-8,4.25-11.94.95-2.39.56-3.39-2.07-4.14a107.34,107.34,0,0,0-32.6-4c-10.41.3-19.91,3.26-27.39,11a14.84,14.84,0,0,0-5.52,10.57,53.81,53.81,0,0,0,0,8.13c.66,8.76,5.52,14.26,13.12,17.94,5.16,2.49,10.91,2.54,16.23,4.33,1.43.48,2.56.91,2.69,2.6s-1.16,2.25-2.45,2.82c-3.91,1.75-7.82,0-11.72.11-1.81.24-3.44-.51-5.12-.93-2.64-.64-5.62-2.56-7.76-1.85-2.45.81-3.07,4.56-4.48,7-5.21,9.11-5.21,9.21,4.71,13.16,16.75,6.65,33.8,7.54,50.83,1.39C898.26,564,904.24,556.8,905,546,905.88,533.8,898.21,524.73,884.85,521.64Z" transform="translate(-662.23 -449.62)"/><path class="cls-12" d="M1256.26,570.54c-.13-1.55-.37-3.14,1.51-3.93C1259,568.6,1257.5,569.51,1256.26,570.54Z" transform="translate(-662.23 -449.62)"/><path class="cls-13" d="M1253.33,575.69c1-1.69,3.65-.17,4.35-2.34C1257.7,576.86,1255.25,575.77,1253.33,575.69Z" transform="translate(-662.23 -449.62)"/><path class="cls-14" d="M1239.76,595.12c1.25,1.34.43,3,.73,4.5l-.68.73C1239.79,598.61,1239.78,596.86,1239.76,595.12Z" transform="translate(-662.23 -449.62)"/><path class="cls-13" d="M1250,581.51c.56-.94,1.13-1.87,1.7-2.81C1251.37,579.78,1253.19,582.16,1250,581.51Z" transform="translate(-662.23 -449.62)"/><path class="cls-15" d="M1071.76,620.59c0-.5,0-1,0-1.5a4.47,4.47,0,0,1,1.5,3.66C1072,622.56,1072.35,621.25,1071.76,620.59Z" transform="translate(-662.23 -449.62)"/><path class="cls-16" d="M1083.79,607.26a3.13,3.13,0,0,1,1.56-3.1C1085.19,605.37,1085,606.57,1083.79,607.26Z" transform="translate(-662.23 -449.62)"/><path class="cls-1" d="M1006.45,494.83c0-2.68-1-3.06-3.27-3-8,.1-16,0-24,.05-2.5,0-5.33-.65-7.4.31-2.57,1.19-.12,4.59-1.65,7.08a26.1,26.1,0,0,0-7.72-5.62c-13.4-6-31.49-1.86-40.49,9.76-10.31,13.3-11.74,28.25-6.49,43.91,3.47,10.36,10.2,18,20.67,21.72a37.08,37.08,0,0,0,23.19.74c4.49-1.29,8-4.11,11.47-8.46a40.75,40.75,0,0,1,0,4.48c-.4,3,.7,4,3.87,3.94,9.61-.23,19.23-.15,28.84,0,2.28,0,3-.62,3-2.94Q1006.32,530.78,1006.45,494.83Zm-51,49.39c-6.37-1.17-10.34-7.61-9.82-15.93.47-7.57,5.21-12.94,11.67-13.23,7.38-.33,12.91,6,13,14.74C970.28,539.39,963.75,545.74,955.41,544.22Z" transform="translate(-662.23 -449.62)"/><path class="cls-17" d="M1166.25,574.26c-1.28-2.84-1.28-2.84,2.77-3.63-1.43-1.27-4-1.87-1.91-4.58.78-1-2.68-.47-2.41-2.44,1.21-1.36,3.29-.1,4.49-1.49l7.61-.07v.08c-.28.94.13,1.47,1,1.8,1.12.42,2.4.4,3.39,1.18h0c.58,1.56,2.24,2.77,1.56,4.74-1.27.92-3,.51-4.26,1.34a2.63,2.63,0,0,1-2-.12,5,5,0,0,1-1.67-1.17,2.88,2.88,0,0,1-.75-1.82c-.93-1.18-1.71-1.07-2.74.41a5.64,5.64,0,0,1,.08,1.48A6.05,6.05,0,0,1,1166.25,574.26Z" transform="translate(-662.23 -449.62)"/><path class="cls-18" d="M1153.6,562a4.06,4.06,0,0,0-2.39-1.47,3.81,3.81,0,0,1-3.15-4.44c.29-.53.61-1,.85-1.6,1-2.42,2.35-4.43,5.43-3a5.82,5.82,0,0,1,2.86,7.65,7.59,7.59,0,0,1-2.67,3.06A.86.86,0,0,1,1153.6,562Z" transform="translate(-662.23 -449.62)"/><path class="cls-19" d="M1158.62,568.12a2.19,2.19,0,0,1-2.24-1.51,2.47,2.47,0,0,1,.89-3l4.29.63a.55.55,0,0,1,.32.53c0,.21-.07.32-.13.32C1161.29,566.74,1159.79,567.25,1158.62,568.12Z" transform="translate(-662.23 -449.62)"/><path class="cls-20" d="M1157.27,563.65a4.75,4.75,0,0,1-.89,3c-2.11-.8-4.67-1.34-2.78-4.58a.32.32,0,0,1,.37,0,1.36,1.36,0,0,1,1.72.09A1.44,1.44,0,0,0,1157.27,563.65Z" transform="translate(-662.23 -449.62)"/><path class="cls-21" d="M1169.19,562.12c-.76,2.7-3,1-4.49,1.49,0-.44,0-.88,0-1.33Z" transform="translate(-662.23 -449.62)"/><path class="cls-22" d="M1155.69,562.12,1154,562l3.23-2.88C1157.44,560.52,1158.07,562.08,1155.69,562.12Z" transform="translate(-662.23 -449.62)"/><path class="cls-23" d="M1161.75,565.13c-.06-.28-.12-.56-.19-.84.19-1-.08-2.35,1.68-2.06C1163,563.35,1163.68,564.9,1161.75,565.13Z" transform="translate(-662.23 -449.62)"/><path class="cls-24" d="M1218.65,565.16a1,1,0,0,1,.7-.16c.3,1.54.61,3.08.92,4.63-2.06-1.07-3.73-1-4.56,1.54-.07-1.35-.35-2.78,1.62-3.09S1218.52,566.27,1218.65,565.16Z" transform="translate(-662.23 -449.62)"/><path class="cls-25" d="M1235.17,566.59c.31,2.31-.55,3.43-3,2.93A4.23,4.23,0,0,1,1235.17,566.59Z" transform="translate(-662.23 -449.62)"/><path class="cls-26" d="M1244.23,559.91c2.58-1,5.17-2,7.49.57a.77.77,0,0,1-1.07.12C1248.56,559.89,1246.28,560.94,1244.23,559.91Z" transform="translate(-662.23 -449.62)"/><path class="cls-27" d="M1244.23,559.91c2.25.24,4.61-.73,6.76.63a.59.59,0,0,1-.79.23l-1.4-.09a1.91,1.91,0,0,1-2.35,0l-2.29-.14C1244.18,560.35,1244.2,560.13,1244.23,559.91Z" transform="translate(-662.23 -449.62)"/><path class="cls-28" d="M1250.2,560.77l.79-.23a1.15,1.15,0,0,0,.73-.06l1.45.23c-.3,2-1.84,1.25-3,1.4C1250.19,561.66,1250.2,561.22,1250.2,560.77Z" transform="translate(-662.23 -449.62)"/><path class="cls-29" d="M1091.18,577.17a2.29,2.29,0,0,1,0,.74c-.48.9-1.39,1.39-2.06,2.1-.88.43-1.2,1.76-2.48,1.55-.07-1.56,1.51-2.39,1.49-4.23S1090,574.67,1091.18,577.17Z" transform="translate(-662.23 -449.62)"/><path class="cls-30" d="M1092.72,569.48l1.49-1.36a2.13,2.13,0,0,1,3,0c-.2,2.58-2.38.93-3.47,1.62Z" transform="translate(-662.23 -449.62)"/><path class="cls-31" d="M1094.17,573.3c.06,1.34,0,2.61-1.68,3,0-.47.1-.94.16-1.41-.37-.53-.44-1,.17-1.45Z" transform="translate(-662.23 -449.62)"/><path class="cls-32" d="M1084.31,583.06c0,1.23.38,2.61-1.36,3.06-.33-1.12.34-2,.62-3l.1-.13A1.28,1.28,0,0,1,1084.31,583.06Z" transform="translate(-662.23 -449.62)"/><path class="cls-33" d="M1092.82,573.42l-.17,1.45c-.68-.11-1.88.22-1.86-.58S1092.15,573.81,1092.82,573.42Z" transform="translate(-662.23 -449.62)"/><path class="cls-34" d="M1123.36,478.25c-.15-10.89-4.91-17.72-14.84-21.29a6.29,6.29,0,0,0-3.79-1.34,3.76,3.76,0,0,0-3-.77c-2.13-.5-4.24-1.15-6.39-1.47a122.92,122.92,0,0,0-32-.62c-12.28,1.35-24.22,3.77-31.9,15h0c-2.7,5.84-2.8,12.05-2.71,18.32.09,5.67,0,5.83-5.7,5.68-2.77-.07-3.35,1-3.27,3.45.17,4.73,0,9.48.07,14.22.07,5.69-.79,5.1,5,4.85,3.5-.15,4.06,1.11,4,4.24-.16,15.85,0,31.7-.14,47.55,0,2.71.58,3.66,3.49,3.61q14.6-.3,29.21,0c2.94.06,3.75-.73,3.72-3.71-.15-16.1,0-32.2-.12-48.3,0-2.66.76-3.48,3.36-3.32,3.36.21,6.74,0,10.11.08,1.71,0,2.46-.42,2.43-2.29q-.15-9,0-18c0-1.85-.68-2.4-2.41-2.36-3.62.08-7.24,0-10.86,0-1,0-2.58.36-2.51-1.36.2-5.14-1.23-10.54,2.17-15.23a16,16,0,0,1,9-3.16l2.26.06c2.39.68,4.8,1.31,6.77,3a11.45,11.45,0,0,1,1.56,7.53c-.25,2.45.64,3.17,3.12,3.13,8.71-.15,17.43-.06,26.15-.05C1123.47,485.71,1123.47,485.71,1123.36,478.25Z" transform="translate(-662.23 -449.62)"/><path class="cls-35" d="M1119.79,556.19c1.22.08,2.5-.33,3.63.45,1.84,2.26.36,4.58.14,6.87-.93.33-1,1.84-2.37,1.61-1.22.46-2.62.71-3,2.31a6,6,0,0,1-3.19,2.26c-2.91.76-5.83,2.06-8.69-.18l-.07-1.23c.74-3,3.22-5.78,1.44-9.19l.13-1.41c.76-1,1.87-.73,2.88-.8C1113.76,556.71,1116.77,556.47,1119.79,556.19Z" transform="translate(-662.23 -449.62)"/><path class="cls-36" d="M1106.35,569.51l8.69.18c-2.91,2.55-6.48,4-9.72,6.07-.67.41-1.56,1.09-2.37.24s0-1.64.31-2.4A7.12,7.12,0,0,1,1106.35,569.51Z" transform="translate(-662.23 -449.62)"/><path class="cls-37" d="M1134.81,553.08c.29,3,4,5.46,1.42,9.11-.87,1.23-1.55,2.45-2.94,3.13l-.75-2.59c1.62-.66,1.06-2.68,2.24-3.62.43.1.94.58,1.25-.05.23-.47-.17-1.33-.45-1.19-2.43,1.21-3.35-2-5.38-1.75-2.53-.45.23-2.18-.74-3l-.7-2.34c1-.58,2,.13,2.93.05,1.49.07,1.77,1.83,3,2.19Z" transform="translate(-662.23 -449.62)"/><path class="cls-38" d="M1107.72,559.09c2.44,3.17,1.87,4.61-1.44,9.19-.09-1-.5-1.63-1.58-1.66h0C1105.81,564.15,1108.22,562.2,1107.72,559.09Z" transform="translate(-662.23 -449.62)"/><path class="cls-39" d="M1097.19,577.11a1.52,1.52,0,0,1,0,.37c-.35,1.54,1.35,2.54,1.29,3.69-.2,3.73-1.86-.06-3,.33a4.11,4.11,0,0,1-4.21-.73c2.22-.76,5-.66,5.13-3.66A.45.45,0,0,1,1097.19,577.11Z" transform="translate(-662.23 -449.62)"/><path class="cls-40" d="M1112.26,598.71a6.11,6.11,0,0,1,2.92,3.15c-1.71.89-2.83,3.54-5.53,1.75C1110,601.73,1112.25,600.79,1112.26,598.71Z" transform="translate(-662.23 -449.62)"/><path class="cls-41" d="M1119.79,556.19a18.21,18.21,0,0,1-9.11,1.26.83.83,0,0,1,0-1.32A11.77,11.77,0,0,1,1119.79,556.19Z" transform="translate(-662.23 -449.62)"/><path class="cls-42" d="M1098.64,566.39a1.28,1.28,0,0,0-1.1-1.24c-.7-.1-1.64,0-1.68-1,0-1.36,1-.47,1.54-.6,2.14-.52-1.49-2.34.64-2.89.94.52,2.47.48,2.17,2.21C1099.84,564.11,1100.72,565.91,1098.64,566.39Z" transform="translate(-662.23 -449.62)"/><path class="cls-43" d="M1129.46,553.11c.67.08,1.58-.23,1.84.62s-.67.74-1.12,1c-.71.45-.53.92,0,1.37-.22,1.1-.89,2.21-1.73.85-.68-1.1-1.92-.46-2.46-1.65C1126.92,554.32,1128.77,554.5,1129.46,553.11Z" transform="translate(-662.23 -449.62)"/><path class="cls-44" d="M1101.93,596.46c-.08-1.74-1-3.32.9-4.19a1.17,1.17,0,0,1,1.71.91C1104.8,595,1103.47,595.63,1101.93,596.46Z" transform="translate(-662.23 -449.62)"/><path class="cls-5" d="M1071.61,613.35c-1.88-3.94.15-7.34,1.5-10.83C1073.78,606.29,1070.73,609.55,1071.61,613.35Z" transform="translate(-662.23 -449.62)"/><path class="cls-45" d="M1123.56,563.51c0-2.29-.09-4.58-.14-6.87l.8.13c1,.72,2.75,1.12,1.4,3Z" transform="translate(-662.23 -449.62)"/><path class="cls-46" d="M1110.71,556.13l0,1.32-2.83.23c-1.17-.13-1.91-.76-1.49-1.93.55-1.57,1.21-.14,1.86,0A20.43,20.43,0,0,0,1110.71,556.13Z" transform="translate(-662.23 -449.62)"/><path class="cls-47" d="M1100.21,562.87c-.52-.94-2-1-2.17-2.21l.42-.77c-.21-.76-.23-1.44.74-1.67C1099,559.89,1103.48,560.54,1100.21,562.87Z" transform="translate(-662.23 -449.62)"/><path class="cls-48" d="M1118.23,567.43c-.3-2.42-.18-4.3,3-2.31C1120.68,566.49,1119.23,566.68,1118.23,567.43Z" transform="translate(-662.23 -449.62)"/><path class="cls-49" d="M1134.78,559.11c-.35,1.45,1.29,4.14-2.24,3.62C1133.29,561.52,1132.24,559.21,1134.78,559.11Z" transform="translate(-662.23 -449.62)"/><path class="cls-50" d="M1104.64,559.19c1.08,0,1.54.59,1.49,1.62,0,.53-.4,1.17-.81.93a4.46,4.46,0,0,1-1.66-1.81C1103.42,559.42,1104.16,559.27,1104.64,559.19Z" transform="translate(-662.23 -449.62)"/><path class="cls-51" d="M1099.2,558.22c-.24.56-.49,1.11-.74,1.67-1.4-1.32-2.29-2.62.13-3.8C1098.79,556.8,1099,557.51,1099.2,558.22Z" transform="translate(-662.23 -449.62)"/><path class="cls-52" d="M1131.69,550.82c-1,2.67-1.94-.69-2.93-.05l1.56-1.43C1131.3,549.35,1131.72,549.88,1131.69,550.82Z" transform="translate(-662.23 -449.62)"/><path class="cls-53" d="M1094.22,566.63l3.78,0-.78,1.47h-3C1094.22,567.62,1094.22,567.13,1094.22,566.63Z" transform="translate(-662.23 -449.62)"/><path class="cls-54" d="M1110.8,583.16a3.56,3.56,0,0,1-3.1,1.47C1107.83,582.24,1109,582.08,1110.8,583.16Z" transform="translate(-662.23 -449.62)"/><path class="cls-55" d="M1097.19,577.11h-.74a1.71,1.71,0,0,1-.51-2.26c.07-.16.58-.14.89-.2Z" transform="translate(-662.23 -449.62)"/><path class="cls-56" d="M1103.17,588.51a3.63,3.63,0,0,1,2.29,2.09C1104,590.63,1102.31,591,1103.17,588.51Z" transform="translate(-662.23 -449.62)"/><path class="cls-57" d="M1089.09,580c-.18-1.55,1.14-1.63,2.06-2.1C1091,579.16,1090.5,580,1089.09,580Z" transform="translate(-662.23 -449.62)"/><path class="cls-58" d="M1124.22,556.77" transform="translate(-662.23 -449.62)"/><path class="cls-40" d="M1115.19,606.18c-.31.21-.6.56-.79.51a1,1,0,0,1-.55-.7c0-.5.26-.93.82-.75C1114.89,605.31,1115,605.78,1115.19,606.18Z" transform="translate(-662.23 -449.62)"/><path class="cls-40" d="M1118.19,606.43a2.24,2.24,0,0,1,1.53,2.16C1117.1,609.36,1118.64,607.19,1118.19,606.43Z" transform="translate(-662.23 -449.62)"/><path class="cls-40" d="M1115.19,601.87c.78.55,1.57,1.1,1.42,2.24C1115.14,604,1115.18,602.92,1115.19,601.87Z" transform="translate(-662.23 -449.62)"/><path class="cls-38" d="M1104.7,566.62c0,.42.64,1,0,1.2a1,1,0,0,1-1.24-1.24c.16-.61.79,0,1.21,0Z" transform="translate(-662.23 -449.62)"/><path class="cls-59" d="M1149.81,569.64c-2.59,6.6-6.7,12.39-9.93,18.64-1.19,2.3-3.11,4.2-3.77,6.8-1.68,2.46-3.29,5-5,7.38-2.33,3.19-5.48,3.64-9,2.37.24-.84.36-1.79,1.55-1.82a7.59,7.59,0,0,0,8.1-6.34c.07-.32-.4-.58-.73-.77a4.1,4.1,0,0,1-2-2.51,13.29,13.29,0,0,1,.89-5.65,1.74,1.74,0,0,1,1.49-.61c2.6,1.53,2.6,1.53,1.94,4.74.74-.47,1-1.43,1.7-1.86,1.63-.94,3.27-1.62,1.33-4-.7-.86-.1-2.62,1.33-3.37.51-.29,2.05.5,1.21-1.21a2.38,2.38,0,0,1,.27-2.73c.33-.38.78-.62,1.09-1a4.77,4.77,0,0,0-1,.95c-.71.58-.89,1.72-2,1.88a1.51,1.51,0,0,1-1.54-.84c-.79-1.79-.08-3.44.45-5.11,2.06-2.32,4.18-4.59,4.48-7.9a4.79,4.79,0,0,1,3.26-1.33C1148,563,1148.09,563.06,1149.81,569.64Z" transform="translate(-662.23 -449.62)"/><path class="cls-60" d="M1131.69,595.11c.63.1,1.29.24,1.37,1,.44,4-5.73,8.66-9.61,7.25a1,1,0,0,1-.16-1.39c.42-.41.7-1,1.24-1.27a3.56,3.56,0,0,1,1.63-.4c-1.84-.52-2.11,1-3,1.68-2.57-1.56-.61-3.56-.51-5.37h0c.76-.6,1-1.55,1.47-2.3a45.26,45.26,0,0,1,5-8.35c1.39-.11,1.52.57,1,1.64a15.7,15.7,0,0,1-.75,6c0,1.17-.72,1.71-1.72,2.1C1129.05,595.46,1130.5,596.31,1131.69,595.11Z" transform="translate(-662.23 -449.62)"/><path class="cls-61" d="M1136.1,574.57l.09,5.54a9,9,0,0,1-.44,2.13c-1,3.35-1.46,3.47-4.27,1a1.6,1.6,0,0,1,.23-1.65A24.43,24.43,0,0,1,1136.1,574.57Z" transform="translate(-662.23 -449.62)"/><path class="cls-62" d="M1123.45,601.85v1.51l-1.42,1.47c-3.17-3-1.45-5.63.67-8.22C1123.74,598.24,1121.6,600.33,1123.45,601.85Z" transform="translate(-662.23 -449.62)"/><path class="cls-63" d="M1204.72,492.87c0-2.42-.83-2.87-3-2.82-5.94.11-11.57,1.63-17.2,3.25l-7.14,4.65a.93.93,0,0,1-.43-.22,29.9,29.9,0,0,1,0-3.32c.2-2-.63-2.61-2.56-2.6q-15.7.09-31.41,0c-1.6,0-2.55.31-2.53,2.24q.16,27.29.22,54.55c0,1.5,0,3,0,4.5a55,55,0,0,0,0,10.5,6.14,6.14,0,0,0,3.16,2c2.35-.62,4,0,4.7,2.52a3.09,3.09,0,0,0,1.82,2.18,16,16,0,0,0,7.29,0,3.64,3.64,0,0,0,1-.75c0-.47,0-.94,0-1.41a6.33,6.33,0,0,0-2.14-2.07c-1.6-1.08-3.4-2-2.83-4.46-1.44-2.14-4.34-2.82-5.48-5.28,1-.37,1.53-1.4,2.17-2.27,1.85-2.48,3.86-2.4,5.54.15a5.26,5.26,0,0,1,.64,4.62c.59,1.6-.72,2.6-1.21,3.86,0,1.11.82,1.51,1.75,1.76,1.44.16,2.85.63,4.32.34.94-.35,1.25-1.65,2.44-1.61.53,0,1.07,0,1.61,0,1.42,0,2.85,0,4.27.07,2.44-.1,5,.62,7.2-1.11.8-1.25.52-2.66.53-4q0-9.72,0-19.42c0-3.84-.31-7.71,2.28-11,1.71-3,4.78-4.3,7.48-6.08a44.72,44.72,0,0,1,14.68-2.39c2,.06,2.87-.56,2.84-2.75C1204.6,508.59,1204.57,500.73,1204.72,492.87Z" transform="translate(-662.23 -449.62)"/><path class="cls-64" d="M1131.71,581.64v1.48c.67,1.5,1.26,3,0,4.49h-1.5a1.67,1.67,0,0,0-1-1.64A11.81,11.81,0,0,1,1131.71,581.64Z" transform="translate(-662.23 -449.62)"/><path class="cls-65" d="M1143.84,565.34c-.39,2.15-2.1,1.07-3.26,1.33,0-1,.05-2,.08-3A4,4,0,0,1,1143.84,565.34Z" transform="translate(-662.23 -449.62)"/><path class="cls-62" d="M1124.17,594.31c.06,1.11.08,2.21-1.47,2.3C1122.7,595.53,1123.47,594.94,1124.17,594.31Z" transform="translate(-662.23 -449.62)"/><path class="cls-66" d="M1220.85,598.17l.86-.83c2.92,1,5.88,1.71,9,.85-.81.78.28,2.72-1.72,2.77-.26-.25-.73-.63-.89-.48-.4.35.35.39.35.7-1.09,1.17-2.47.68-3.77.64-.86-1.05-1.6-2.25-3.14-2.4A1.09,1.09,0,0,1,1220.85,598.17Z" transform="translate(-662.23 -449.62)"/><path class="cls-67" d="M1200,580.1c-.31-.74-.74-1.54.7-1.44,1.53,1.54,3.45.72,5.19.77a23.14,23.14,0,0,1,6.84.69c.31.59,0,1-.41,1.37l-.52.11c-3.42-2.69-7.39-.94-11.08-1.39A.48.48,0,0,1,1200,580.1Z" transform="translate(-662.23 -449.62)"/><path class="cls-68" d="M1212.58,594.86l.18,1a3.4,3.4,0,0,1-.07,3.71c.07,1,.71,2.12-.08,3.14C1210.18,600.12,1210.84,597.49,1212.58,594.86Z" transform="translate(-662.23 -449.62)"/><path class="cls-69" d="M1176.69,601.12c2.31.67,4.19,2.61,6.83,2.27-2.67,1.55-4.92.32-7.08-1.16C1176,601.91,1176.17,601.4,1176.69,601.12Z" transform="translate(-662.23 -449.62)"/><path class="cls-70" d="M1222.2,587.73c-3.19-1.14-1.06-3-.59-4.58l1.62.74a3.07,3.07,0,0,1,.73,1.58,2.75,2.75,0,0,1-.77,2.16l0,0A.61.61,0,0,1,1222.2,587.73Z" transform="translate(-662.23 -449.62)"/><path class="cls-71" d="M1221.82,591.56c.22-.59.43-1.18.65-1.76a2,2,0,0,1,2.22,0c1.31,1.37-.1,1.91-.84,2.55C1222.77,593.28,1222.47,591.92,1221.82,591.56Z" transform="translate(-662.23 -449.62)"/><path class="cls-72" d="M1177.42,596.6l1.62.07c-1.73.68.42,3.68-2.27,3.79C1173.91,598.66,1177.59,598,1177.42,596.6Z" transform="translate(-662.23 -449.62)"/><path class="cls-73" d="M1211.88,583.07c0-.49-.09-1-.13-1.47l.39,0c.93-.77,1.85-.25,2.76,0C1214.77,584,1213.5,583.93,1211.88,583.07Z" transform="translate(-662.23 -449.62)"/><path class="cls-74" d="M1223.22,585.32c0-.48,0-1,0-1.43a1.93,1.93,0,0,1,2.19,2.24C1224.29,586.94,1223.74,586.18,1223.22,585.32Z" transform="translate(-662.23 -449.62)"/><path class="cls-75" d="M1205.18,601.07c.27-1.73,1.91-.94,2.8-1.52C1207.57,601,1206.54,601.34,1205.18,601.07Z" transform="translate(-662.23 -449.62)"/><path class="cls-76" d="M1224.69,589.79h-2.22a2.45,2.45,0,0,1-.27-2.07l1-.12C1223,588.79,1224.2,589.06,1224.69,589.79Z" transform="translate(-662.23 -449.62)"/><path class="cls-76" d="M1223.22,585.32l2.2.81a2.25,2.25,0,0,1-2.23,1.5Z" transform="translate(-662.23 -449.62)"/><path class="cls-77" d="M1181.24,591.31c0-3.47.87-6.48,4.46-7.95-.07,2.59-2.23,4.72-1.62,7.46-.84.54-1.71,1-2.73.42Z" transform="translate(-662.23 -449.62)"/><path class="cls-77" d="M1186.29,583c1-1.35,1.55-3.29,3.81-3.11.23,1.58-1.6,3.06-.14,4.82.26.31-.71,1.15-1.51.31S1187,583.7,1186.29,583Z" transform="translate(-662.23 -449.62)"/><path class="cls-69" d="M1187,596.14c-2.09,1-3.09-.16-4.19-1.47C1185.19,592.66,1186,594.24,1187,596.14Z" transform="translate(-662.23 -449.62)"/><path class="cls-78" d="M1181.35,591.24a3.22,3.22,0,0,1,2.73-.43c.13,1.7-1.76,1.76-2.34,2.88C1179.59,593.2,1181,592.13,1181.35,591.24Z" transform="translate(-662.23 -449.62)"/><path class="cls-79" d="M1200,580.1a2.17,2.17,0,0,1,.72.11c-.15,1.27-1,1.53-2,1.24-.24-.07-.59-.57-.53-.72C1198.48,579.92,1199.3,580.2,1200,580.1Z" transform="translate(-662.23 -449.62)"/><path class="cls-80" d="M1185.7,593.6c.06-.91-.23-1.93.88-2.94C1187.26,592.23,1187.55,593.25,1185.7,593.6Z" transform="translate(-662.23 -449.62)"/><path class="cls-81" d="M1194.62,573.25c-.5-.7-1.55-1-1.44-2.13C1193.91,571.66,1195.88,571.37,1194.62,573.25Z" transform="translate(-662.23 -449.62)"/><path class="cls-69" d="M1181.7,602.3a3,3,0,0,1-.4-.78c-.07-.36.12-.74.56-.56a1.21,1.21,0,0,1,.57.76C1182.53,602.12,1182.24,602.33,1181.7,602.3Z" transform="translate(-662.23 -449.62)"/><path class="cls-82" d="M1178.18,571.12c.76-2.72,3-1,4.5-1.5,1.15.67.83,2,1.43,3,.5,3.92.09,7.6-2.82,10.62a3,3,0,0,0-1.2-.86,2.93,2.93,0,0,1,1.2.85,3.4,3.4,0,0,1-1.55,2.26c-.11-2.5-2.25-.42-3-1.32s-2.74-.6-2.7-2c0-1.23,1.27-2,2.63-2,.93-.67.69-2.27,2.06-2.58,2.16-.4,1.41-1.71.92-2.94a4.15,4.15,0,0,1-.34-.91,5.17,5.17,0,0,0-1-2.11Z" transform="translate(-662.23 -449.62)"/><path class="cls-83" d="M1151.18,583.11c.61-2.68,3-4,4.49-6.07-.37,1.79,1.42,2.88,1.48,4.51,0,.94.39,2.07-.64,2.73a1.54,1.54,0,0,1-1.39.11c-1.33-1,.68-1.56.48-2.48-.08-.35-.11-.72-.18-1.22C1153.37,580.46,1153,583.17,1151.18,583.11Z" transform="translate(-662.23 -449.62)"/><path class="cls-84" d="M1179,577.91c-1,.46-.6,2.42-2.28,2.2-.13-1,.36-2.23-.77-3,1-2.16,2.28-4.28.68-6.7l1.58.72h0c.71.62.89,1.57,1.51,2.24l.12.75c0,.14-.09.28-.13.42a3.65,3.65,0,0,0-.39,2.55A1.34,1.34,0,0,1,1179,577.91Z" transform="translate(-662.23 -449.62)"/><path class="cls-83" d="M1155.82,576.34c-.39-2.58,2.67-4,2.15-6.66a1.87,1.87,0,0,1,.66-.15C1158.48,572.13,1160,575.4,1155.82,576.34Z" transform="translate(-662.23 -449.62)"/><path class="cls-85" d="M1151.28,592.13a1.25,1.25,0,0,1,1.31-1.42c1.1,0,1.58.54,1.51,1.58s-.64,1.26-1.49,1.23A1.23,1.23,0,0,1,1151.28,592.13Z" transform="translate(-662.23 -449.62)"/><path class="cls-86" d="M1160.14,580.11c0,.49,0,1.07-.69,1.06s-.68-.59-.68-1.07,0-1.06.69-1.06S1160.1,579.63,1160.14,580.11Z" transform="translate(-662.23 -449.62)"/><path class="cls-87" d="M1162.54,583.24c0,.57,0,1.18-.75,1.35-.5.08-1.34.89-1.39-.07C1160.34,583.3,1161.46,583.08,1162.54,583.24Z" transform="translate(-662.23 -449.62)"/><path class="cls-88" d="M1147.58,602l-.18-1.07c.12-.64.54-1.28,1.11-.87.83.59-.25,1.19-.32,1.82A3.14,3.14,0,0,1,1147.58,602Z" transform="translate(-662.23 -449.62)"/><path class="cls-89" d="M1217.19,597.35c-2.26-1.25-.06-2.5,0-3.75a1,1,0,0,1,1.5,0c.16,2.26-.5,4.61.75,6.74l-2.25.76h0Z" transform="translate(-662.23 -449.62)"/><path class="cls-89" d="M1256.26,570.54c.84-1.18.51-2.81,1.51-3.93.28-2-1.17-1.48-2.22-1.55-1.25-.52-1.75.67-2.57,1.12a1.65,1.65,0,0,1-2.57.1c-1.89-1.67.92-2.81.48-4.32a2.44,2.44,0,0,0-.49-1.43,1.73,1.73,0,0,0-1.42-.33,2.48,2.48,0,0,1-3-.09,2,2,0,0,0-1.87.46c-3.28,1.58-6.68,3-9,6a5.34,5.34,0,0,1-3,2.93l-.14.12c-.1,1.76-2.1,1.93-2.71,3.78-2.42,7.42-.72,14,3.23,20.1,2,3,.72,3.9-1.87,4.67-1,.36-1.17,1.47-2,2-.27.16-.55.3-.83.44a6.19,6.19,0,0,1-2.8.28c-1,0-1.66-.82-2.59-1a8,8,0,0,1-1.83-.11c.33-.4.58-.85.87-1.28s.48-.77.15-1.23c-3.45-2-.9-3.88.11-5.78a2.29,2.29,0,0,0,1-1.58,7.45,7.45,0,0,1-.28-2.65c-1.42-1.14.12-3-1-4.18-5.51,2-7.51,6.65-9,11.71a1.47,1.47,0,0,0-.09,1.09c.09.17.17.34.25.51-.13,1-.65,2-.13,3l-.09,0a4.72,4.72,0,0,0,.09,3.25c2.66,3.06,6.67,2.91,10.05,4.25,5.35,0,10.64-.28,15.49-2.89,1.08-.78.82-2.17,1.45-3.16a.67.67,0,0,1,.21-.59,8.24,8.24,0,0,0,.82-4.61c-.16-2.92-1.6-5.42-2.71-8a2.64,2.64,0,0,0-.72-1.33,8.12,8.12,0,0,1-2.21-2.46,9.39,9.39,0,0,1-.3-4.25c.22-1.57.89-2.78,2.58-3.15,2.81-2.14,5.58-4.33,8.57-6.22.52-.25.92-1.5,1.64-.23-.2,1.49-1.11,2.8-1.17,4.34a4.27,4.27,0,0,0,.54,2.62,1.75,1.75,0,0,0,1.46.54c1.77-.24,3.8.14,4.76-2l.26.12c1.38-.91,4,.39,4.35-2.34A2.12,2.12,0,0,0,1256.26,570.54Zm-39.45,32c-.41-.32-.16-.84.15-1.22l.06-.08a1.66,1.66,0,0,0-.18.6C1216.81,602.12,1217,602.69,1216.81,602.57Zm.38-1.5a4.42,4.42,0,0,0,.44-.53,3,3,0,0,0-.13-3.1,1.37,1.37,0,0,0-.29-.2,23.42,23.42,0,0,1,.62-3c.23.07,0,.25.09.36.11,1.81-.65,3.88.93,5.34A4.6,4.6,0,0,0,1217.19,601.07Z" transform="translate(-662.23 -449.62)"/><path class="cls-90" d="M1235.18,584.6c1.81-2,2.61-.75,3.13,1,.24.81,2.09,2.48-.86,2l-.8-.79C1237.33,585.29,1235.18,585.66,1235.18,584.6Z" transform="translate(-662.23 -449.62)"/><path class="cls-89" d="M1217.19,601.11c-.65,1.21,2.77,1.19.86,2.72a1.34,1.34,0,0,1-2-.31c-.66-1.17-.45-2.17,1.13-2.42Z" transform="translate(-662.23 -449.62)"/><path class="cls-91" d="M1228.43,601.18l-2.94-.24c1.55-1.23,2.63-2.72,3.48,0A1.07,1.07,0,0,0,1228.43,601.18Z" transform="translate(-662.23 -449.62)"/><path class="cls-92" d="M1250.19,566.62h3a1.38,1.38,0,0,1-1.68,1.44C1250.58,568,1250.27,567.42,1250.19,566.62Z" transform="translate(-662.23 -449.62)"/><path class="cls-93" d="M1221.69,598.9c1.64.31,2.94,1,3,2.92-1.12.13-1.53-.82-2.17-1.41C1222,600.05,1221.32,599.75,1221.69,598.9Z" transform="translate(-662.23 -449.62)"/><path class="cls-4" d="M1245.59,577.78c.28-1.34.32-2.78,1.58-3.71,0,1,0,2,0,3,.17,1.21-.5,1.13-1.31.86Z" transform="translate(-662.23 -449.62)"/><path class="cls-94" d="M1248.58,569.88l-2.91-.29a1.39,1.39,0,0,1,1.64-1.41C1248.41,568.25,1248.64,569,1248.58,569.88Z" transform="translate(-662.23 -449.62)"/><path class="cls-95" d="M1221.69,598.9l.8,1.51a1.43,1.43,0,0,1-2.27-.07c.13-.75-.5-1.72.63-2.17Z" transform="translate(-662.23 -449.62)"/><path class="cls-96" d="M1245.88,578l1.31-.86h1.49C1248.27,579.08,1247.19,578.89,1245.88,578Z" transform="translate(-662.23 -449.62)"/><path class="cls-97" d="M1246.45,560.71l2.34,0c-.15.74-.41,1.38-1.35,1.28C1246.68,561.89,1246.55,561.31,1246.45,560.71Z" transform="translate(-662.23 -449.62)"/><path class="cls-98" d="M1235.18,584.6c.67.62,2.62.38,1.47,2.21a4,4,0,0,1-2.34-2.08Z" transform="translate(-662.23 -449.62)"/><path class="cls-99" d="M719.8,509.07c-.15-5.57.75-11.17-.52-16.7l-.79.77h-.75c-3.4-1.54-7-.38-10.49-.72h0l-1.5-.79c.36-1,1.33-2,0-3h0v-.75a23.31,23.31,0,0,0,0-12.75h0c.31-1.76,1.42-3.8-1.5-4.49a137.36,137.36,0,0,0-30.47-.11l.28.07-1.31,0,1-.11a2,2,0,0,0-1,.11h0c-1.86.27-1.46,1.73-1.47,2.91,0,4.37,0,8.74,0,13.11,0,6.16,0,6.2-6.15,6.44-1.69.06-2.91.22-2.88,2.39.08,5.49-.06,11,.07,16.48.06,2.53,1.66,3.83,4.21,3.59,4.75-.44,4.75-.49,4.75,4.58l0,45c-.49,2.89.59,3.9,3.63,3.83,9-.19,18-.21,26.94,0,3.6.08,4.72-1.05,4.69-4.68-.16-16.2-.06-32.41,0-48.62h0l.73,0,3,0h4.48l4.53.07C720.52,513.55,719.87,511.24,719.8,509.07Z" transform="translate(-662.23 -449.62)"/><path class="cls-100" d="M1184.11,572.6a4.44,4.44,0,0,1-1.43-3c-.54-1.49-1.5-2.84-1.48-4.52C1183.64,567,1184.28,569.66,1184.11,572.6Z" transform="translate(-662.23 -449.62)"/><path class="cls-100" d="M1181.2,565.11c-1.64-.21-3.3-.13-4.8-1.21s.38-1.17.41-1.77C1177.88,563.7,1180.32,563.26,1181.2,565.11Z" transform="translate(-662.23 -449.62)"/><path class="cls-101" d="M1069.32,615.93c-.07,1.06-.78,1-1.33,1s-1.12,0-1-.7.62-1.4,1.47-1.23C1068.84,615.07,1069.1,615.66,1069.32,615.93Z" transform="translate(-662.23 -449.62)"/><path class="cls-102" d="M1170.74,568.14l-1-.39c1.55-.73,3.11-2,4.64-2,1.36,0,.92,1.57,0,2.43A2.79,2.79,0,0,1,1170.74,568.14Z" transform="translate(-662.23 -449.62)"/><path class="cls-103" d="M1170.74,568.14l3.63,0,.75,1.41-4.31.21C1170.78,569.23,1170.76,568.69,1170.74,568.14Z" transform="translate(-662.23 -449.62)"/><path class="cls-104" d="M1120.33,491.79c-10.11.12-20.22.1-30.33,0-2.29,0-3.26.44-3.25,3.07q.15,35.75,0,71.5c0,2.64.75,3.67,3.36,3.26a25.21,25.21,0,0,1,2.61-.15c.82-.34,1.92-.34,2-1.59a2,2,0,0,0-.24-1.07,3.21,3.21,0,0,0,3.49-.17,1.88,1.88,0,0,0,.64-.26c-.39-1.76,0-3.49.18-5.23a3.52,3.52,0,0,0,.12-1.48c-.42-1.16-1.51-2.27-.35-3.59,1.45-2.3,5.11-1.48,6.17-4.35h0c6-2.31,12.06-4.43,18.59-4.67,0-17.34,0-34.69.09-52C1123.45,492.61,1122.83,491.76,1120.33,491.79Z" transform="translate(-662.23 -449.62)"/><path class="cls-60" d="M1131.7,587.61c.35-1.5-.82-3,0-4.49,1.54.75,3.34,2.1,3-1.36a1.41,1.41,0,0,1,1.46-1.65h1.51a2.11,2.11,0,0,1,0,3c-.11,1.23-2.39,2.63.5,3.65,1,.36.83,2-.24,2.37-2.46,1-3.41,3.48-5.56,5-1-1.18-1.09-2.43-.13-3.32C1134,589.3,1132.51,588.57,1131.7,587.61Z" transform="translate(-662.23 -449.62)"/><path class="cls-62" d="M1131.69,595.11c-1.09,2.81-3.36,1.18-5.13,1.27-.6,0-.87-.83-.75-1.5.22-1.23.84-.89,1.55-.37,1.17.87,1.34-.71,2.09-.9C1130.23,594.06,1130.53,595.23,1131.69,595.11Z" transform="translate(-662.23 -449.62)"/><path class="cls-61" d="M1137.7,583.11v-3a1.37,1.37,0,0,1,1.5-1.5,7.19,7.19,0,0,0,.4,2.51c.56,1,1.69,1.92.64,2.88C1139.4,584.77,1138.77,582.87,1137.7,583.11Z" transform="translate(-662.23 -449.62)"/><path class="cls-61" d="M1140.65,575.75c1.22,0,1.5.61,1.47,1.46,0,1.18-.87,1.41-1.81,1.37-.44,0-1.28.51-1.12-.72S1139.76,576,1140.65,575.75Z" transform="translate(-662.23 -449.62)"/><path class="cls-62" d="M1123.42,601.46c.38-1,.77-2,1.18-3.07l3.89,1.84C1127,601.86,1124.73,600.39,1123.42,601.46Z" transform="translate(-662.23 -449.62)"/><path class="cls-105" d="M1218.69,593.61h-1.5c.07-.91-.21-1.91.61-2.67C1219.13,591.63,1218.5,592.74,1218.69,593.61Z" transform="translate(-662.23 -449.62)"/><path class="cls-17" d="M1179,577.91c0-.2,0-.4,0-.6,0-1.11-.2-2.26.68-3.19h.15c2.18.62,1.46,2.38,1.16,3.66C1180.72,578.85,1179.71,578.71,1179,577.91Z" transform="translate(-662.23 -449.62)"/><path class="cls-2" d="M1181.29,583.21c-.89-.18-1.92.11-3.27-1.13,1.85-.52,2.85-.72,3.27,1.14Z" transform="translate(-662.23 -449.62)"/><path class="cls-17" d="M1179.69,573.36c-1.5-.07-1.48-1.17-1.51-2.24C1179.44,571.37,1180.4,571.8,1179.69,573.36Z" transform="translate(-662.23 -449.62)"/><path class="cls-106" d="M1179.66,574.12c0,1.12.19,2.26-.68,3.19C1178,576,1177.32,574.74,1179.66,574.12Z" transform="translate(-662.23 -449.62)"/></svg>